<?xml version="1.0" encoding="UTF-8" standalone="no"?>
<!DOCTYPE svg PUBLIC "-//W3C//DTD SVG 1.1//EN"
 "http://www.w3.org/Graphics/SVG/1.1/DTD/svg11.dtd">
<!-- Generated by graphviz version 2.43.0 (0)
 -->
<!-- Title: %3 Pages: 1 -->
<svg width="397pt" height="332pt"
 viewBox="0.00 0.00 396.62 332.00" xmlns="http://www.w3.org/2000/svg" xmlns:xlink="http://www.w3.org/1999/xlink">
<g id="graph0" class="graph" transform="scale(1 1) rotate(0) translate(4 328)">
<title>%3</title>
<polygon fill="white" stroke="transparent" points="-4,4 -4,-328 392.62,-328 392.62,4 -4,4"/>
<!-- 5 -->
<g id="5" class="node">
<title>5</title>
<ellipse fill="none" stroke="black" cx="125.47" cy="-306" rx="48.19" ry="18"/>
<text text-anchor="middle" x="125.47" y="-302.3" font-family="Times,serif" font-size="14.00">Phoenix</text>
</g>
<!-- 5&#45;&gt;5 -->
<g id="edge4" class="edge">
<title>5&#45;&gt;5</title>
<path fill="none" stroke="black" d="M158.8,-319.03C176.04,-321.03 191.57,-316.69 191.57,-306 191.57,-297.48 181.71,-293 168.98,-292.54"/>
<polygon fill="black" stroke="black" points="168.64,-289.05 158.8,-292.97 168.94,-296.04 168.64,-289.05"/>
</g>
<!-- 7 -->
<g id="7" class="node">
<title>7</title>
<ellipse fill="none" stroke="black" cx="76.47" cy="-234" rx="44.39" ry="18"/>
<text text-anchor="middle" x="76.47" y="-230.3" font-family="Times,serif" font-size="14.00">Atlanta</text>
</g>
<!-- 5&#45;&gt;7 -->
<g id="edge5" class="edge">
<title>5&#45;&gt;7</title>
<path fill="none" stroke="black" d="M108.59,-289.12C101.82,-280.8 94.28,-270.41 88.1,-260.96"/>
<polygon fill="black" stroke="black" points="90.94,-258.9 82.66,-252.29 85.01,-262.62 90.94,-258.9"/>
</g>
<!-- 9 -->
<g id="9" class="node">
<title>9</title>
<ellipse fill="none" stroke="black" cx="93.47" cy="-18" rx="50.09" ry="18"/>
<text text-anchor="middle" x="93.47" y="-14.3" font-family="Times,serif" font-size="14.00">San Jose</text>
</g>
<!-- 5&#45;&gt;9 -->
<g id="edge1" class="edge">
<title>5&#45;&gt;9</title>
<path fill="none" stroke="black" d="M83.56,-297.08C58.54,-289.69 29.08,-276.05 14.47,-252 -27.53,-182.84 32.53,-86.71 69.2,-42.7"/>
<polygon fill="black" stroke="black" points="71.86,-44.97 75.74,-35.11 66.56,-40.4 71.86,-44.97"/>
</g>
<!-- 12 -->
<g id="12" class="node">
<title>12</title>
<ellipse fill="none" stroke="black" cx="149.47" cy="-90" rx="48.19" ry="18"/>
<text text-anchor="middle" x="149.47" y="-86.3" font-family="Times,serif" font-size="14.00">Chicago</text>
</g>
<!-- 5&#45;&gt;12 -->
<g id="edge2" class="edge">
<title>5&#45;&gt;12</title>
<path fill="none" stroke="black" d="M126.67,-287.87C130.4,-277.74 135.9,-264.49 138.47,-252 147.99,-205.75 145.82,-150.45 145.83,-118.17"/>
<polygon fill="black" stroke="black" points="149.33,-118.18 145.93,-108.15 142.33,-118.11 149.33,-118.18"/>
</g>
<!-- 15 -->
<g id="15" class="node">
<title>15</title>
<ellipse fill="none" stroke="black" cx="285.47" cy="-162" rx="85.29" ry="18"/>
<text text-anchor="middle" x="285.47" y="-158.3" font-family="Times,serif" font-size="14.00">Washington, DC</text>
</g>
<!-- 5&#45;&gt;15 -->
<g id="edge3" class="edge">
<title>5&#45;&gt;15</title>
<path fill="none" stroke="black" d="M141.79,-289.02C155.2,-278.97 173.95,-265.41 189.47,-252 213.23,-231.49 238.03,-205.6 256.69,-187.04"/>
<polygon fill="black" stroke="black" points="259.62,-189.08 264.3,-179.57 254.71,-184.08 259.62,-189.08"/>
</g>
<!-- 7&#45;&gt;5 -->
<g id="edge9" class="edge">
<title>7&#45;&gt;5</title>
<path fill="none" stroke="black" d="M93.31,-250.83C100.17,-259.23 107.8,-269.77 114.03,-279.31"/>
<polygon fill="black" stroke="black" points="111.22,-281.43 119.49,-288.05 117.16,-277.72 111.22,-281.43"/>
</g>
<!-- 7&#45;&gt;7 -->
<g id="edge8" class="edge">
<title>7&#45;&gt;7</title>
<path fill="none" stroke="black" d="M107.19,-246.94C123.67,-249.14 138.67,-244.83 138.67,-234 138.67,-225.46 129.33,-220.97 117.29,-220.53"/>
<polygon fill="black" stroke="black" points="117,-217.05 107.19,-221.06 117.36,-224.04 117,-217.05"/>
</g>
<!-- 7&#45;&gt;9 -->
<g id="edge10" class="edge">
<title>7&#45;&gt;9</title>
<path fill="none" stroke="black" d="M73.96,-215.85C73.36,-178.74 80.09,-90.75 86.65,-46.05"/>
<polygon fill="black" stroke="black" points="90.15,-46.36 88.27,-35.94 83.24,-45.26 90.15,-46.36"/>
</g>
<!-- 7&#45;&gt;12 -->
<g id="edge6" class="edge">
<title>7&#45;&gt;12</title>
<path fill="none" stroke="black" d="M80.7,-215.87C90.81,-191.11 114.19,-145.14 131.09,-116.42"/>
<polygon fill="black" stroke="black" points="134.15,-118.12 136.32,-107.75 128.16,-114.5 134.15,-118.12"/>
</g>
<!-- 7&#45;&gt;15 -->
<g id="edge7" class="edge">
<title>7&#45;&gt;15</title>
<path fill="none" stroke="black" d="M107.16,-220.97C138.97,-209.72 189.22,-192.82 228.33,-180.16"/>
<polygon fill="black" stroke="black" points="229.57,-183.44 238.02,-177.04 227.43,-176.78 229.57,-183.44"/>
</g>
<!-- 9&#45;&gt;5 -->
<g id="edge11" class="edge">
<title>9&#45;&gt;5</title>
<path fill="none" stroke="black" d="M84.31,-35.7C57.72,-75.66 -11.92,-178.9 32.47,-252 43.28,-269.79 62.22,-281.89 80.25,-289.97"/>
<polygon fill="black" stroke="black" points="78.98,-293.23 89.56,-293.84 81.67,-286.77 78.98,-293.23"/>
</g>
<!-- 9&#45;&gt;7 -->
<g id="edge15" class="edge">
<title>9&#45;&gt;7</title>
<path fill="none" stroke="black" d="M95.99,-36.23C96.57,-73.32 89.88,-160.98 83.33,-205.71"/>
<polygon fill="black" stroke="black" points="79.83,-205.42 81.71,-215.85 86.74,-206.52 79.83,-205.42"/>
</g>
<!-- 9&#45;&gt;9 -->
<g id="edge14" class="edge">
<title>9&#45;&gt;9</title>
<path fill="none" stroke="black" d="M128.14,-31.06C145.74,-32.97 161.52,-28.62 161.52,-18 161.52,-9.46 151.3,-4.97 138.14,-4.53"/>
<polygon fill="black" stroke="black" points="137.99,-1.04 128.14,-4.94 138.27,-8.03 137.99,-1.04"/>
</g>
<!-- 9&#45;&gt;12 -->
<g id="edge12" class="edge">
<title>9&#45;&gt;12</title>
<path fill="none" stroke="black" d="M111.89,-34.83C119.75,-43.41 128.64,-54.21 135.9,-63.9"/>
<polygon fill="black" stroke="black" points="133.1,-66 141.8,-72.05 138.77,-61.9 133.1,-66"/>
</g>
<!-- 9&#45;&gt;15 -->
<g id="edge13" class="edge">
<title>9&#45;&gt;15</title>
<path fill="none" stroke="black" d="M136.51,-27.35C166.35,-35.28 205.37,-49.4 233.47,-72 254.46,-88.87 271.1,-114.85 280.08,-134.39"/>
<polygon fill="black" stroke="black" points="276.87,-135.79 283.96,-143.67 283.33,-133.09 276.87,-135.79"/>
</g>
<!-- 12&#45;&gt;5 -->
<g id="edge16" class="edge">
<title>12&#45;&gt;5</title>
<path fill="none" stroke="black" d="M156.8,-108.15C163.18,-137.83 167.07,-200.53 156.47,-252 154.53,-261.46 150.9,-271.35 146.66,-280"/>
<polygon fill="black" stroke="black" points="143.57,-278.35 141.86,-288.81 149.72,-281.7 143.57,-278.35"/>
</g>
<!-- 12&#45;&gt;7 -->
<g id="edge17" class="edge">
<title>12&#45;&gt;7</title>
<path fill="none" stroke="black" d="M145.31,-107.98C135.18,-132.84 111.53,-179.3 94.58,-208.05"/>
<polygon fill="black" stroke="black" points="91.53,-206.34 89.34,-216.71 97.51,-209.97 91.53,-206.34"/>
</g>
<!-- 12&#45;&gt;9 -->
<g id="edge18" class="edge">
<title>12&#45;&gt;9</title>
<path fill="none" stroke="black" d="M131.01,-73.12C123.12,-64.51 114.21,-53.67 106.94,-43.96"/>
<polygon fill="black" stroke="black" points="109.74,-41.85 101.05,-35.8 104.07,-45.95 109.74,-41.85"/>
</g>
<!-- 12&#45;&gt;12 -->
<g id="edge20" class="edge">
<title>12&#45;&gt;12</title>
<path fill="none" stroke="black" d="M182.8,-103.03C200.04,-105.03 215.57,-100.69 215.57,-90 215.57,-81.48 205.71,-77 192.98,-76.54"/>
<polygon fill="black" stroke="black" points="192.64,-73.05 182.8,-76.97 192.94,-80.04 192.64,-73.05"/>
</g>
<!-- 12&#45;&gt;15 -->
<g id="edge19" class="edge">
<title>12&#45;&gt;15</title>
<path fill="none" stroke="black" d="M180.34,-104.1C201.35,-114.18 229.06,-128.29 250.81,-139.94"/>
<polygon fill="black" stroke="black" points="249.27,-143.09 259.73,-144.76 252.6,-136.93 249.27,-143.09"/>
</g>
<!-- 15&#45;&gt;5 -->
<g id="edge21" class="edge">
<title>15&#45;&gt;5</title>
<path fill="none" stroke="black" d="M276.87,-180.25C262.45,-198.83 234.29,-228.84 207.47,-252 193.63,-263.95 177.23,-276.03 162.63,-285.63"/>
<polygon fill="black" stroke="black" points="160.35,-282.93 153.81,-291.26 164.12,-288.83 160.35,-282.93"/>
</g>
<!-- 15&#45;&gt;7 -->
<g id="edge22" class="edge">
<title>15&#45;&gt;7</title>
<path fill="none" stroke="black" d="M246.06,-178.1C210.53,-190.51 158.48,-207.92 121.36,-219.78"/>
<polygon fill="black" stroke="black" points="120.26,-216.46 111.79,-222.82 122.38,-223.13 120.26,-216.46"/>
</g>
<!-- 15&#45;&gt;9 -->
<g id="edge23" class="edge">
<title>15&#45;&gt;9</title>
<path fill="none" stroke="black" d="M271.26,-144.02C258.83,-124.27 240.15,-91.84 215.47,-72 193.38,-54.23 164.53,-41.71 140.36,-33.31"/>
<polygon fill="black" stroke="black" points="141.26,-29.92 130.67,-30.07 139.04,-36.56 141.26,-29.92"/>
</g>
<!-- 15&#45;&gt;12 -->
<g id="edge24" class="edge">
<title>15&#45;&gt;12</title>
<path fill="none" stroke="black" d="M249.93,-145.64C228.76,-135.38 202.21,-121.79 181.66,-110.73"/>
<polygon fill="black" stroke="black" points="183.14,-107.55 172.68,-105.85 179.79,-113.7 183.14,-107.55"/>
</g>
<!-- 15&#45;&gt;15 -->
<g id="edge25" class="edge">
<title>15&#45;&gt;15</title>
<path fill="none" stroke="black" d="M342.75,-175.34C367.46,-176.43 388.62,-171.98 388.62,-162 388.62,-153.42 372.99,-148.93 352.91,-148.53"/>
<polygon fill="black" stroke="black" points="352.7,-145.03 342.75,-148.66 352.79,-152.03 352.7,-145.03"/>
</g>
</g>
</svg>
